HIERARCHY
ROOT Hips
{
	OFFSET -3.958830 18.904000 13.208200
	CHANNELS 6 Xposition Yposition Zposition Zrotation Yrotation Xrotation 
	JOINT LHipJoint
	{
		OFFSET 0.000000 0.000000 0.000000
		CHANNELS 3 Zrotation Yrotation Xrotation
		JOINT LeftUpLeg
		{
			OFFSET 1.800000 -1.400000 0.085000
			CHANNELS 3 Zrotation Yrotation Xrotation
			JOINT LeftLeg
			{
				OFFSET 2.215000 -6.000000 0.000000
				CHANNELS 3 Zrotation Yrotation Xrotation
				JOINT LeftFoot
				{
					OFFSET 2.500000 -6.900000 0.000000
					CHANNELS 3 Zrotation Yrotation Xrotation
					JOINT LeftToeBase
					{
						OFFSET 0.200000 -0.500000 1.950000
						CHANNELS 3 Zrotation Yrotation Xrotation
						End Site
						{
							OFFSET 0.000000 0.000000 0.000000
						}
					}
				}
			}
		}
	}
	JOINT RHipJoint
	{
		OFFSET 0.000000 0.000000 0.000000
		CHANNELS 3 Zrotation Yrotation Xrotation
		JOINT RightUpLeg
		{
			OFFSET -1.800000 -1.400000 0.085000
			CHANNELS 3 Zrotation Yrotation Xrotation
			JOINT RightLeg
			{
				OFFSET -2.215000 -6.000000 0.000000
				CHANNELS 3 Zrotation Yrotation Xrotation
				JOINT RightFoot
				{
					OFFSET -2.500000 -6.900000 0.000000
					CHANNELS 3 Zrotation Yrotation Xrotation
					JOINT RightToeBase
					{
						OFFSET -0.200000 -0.500000 1.950000
						CHANNELS 3 Zrotation Yrotation Xrotation
						End Site
						{
							OFFSET 0.000000 0.000000 0.000000
						}
					}
				}
			}
		}
	}
	JOINT LowerBack
	{
		OFFSET 0.000000 0.000000 0.000000
		CHANNELS 3 Zrotation Yrotation Xrotation
		JOINT Spine
		{
			OFFSET -0.087000 1.940000 -0.288900
			CHANNELS 3 Zrotation Yrotation Xrotation
			JOINT Spine1
			{
				OFFSET 0.000000 1.950000 0.060000
				CHANNELS 3 Zrotation Yrotation Xrotation
				JOINT Neck
				{
					OFFSET 0.000000 0.000000 0.000000
					CHANNELS 3 Zrotation Yrotation Xrotation
					JOINT Neck1
					{
						OFFSET 0.000000 1.600000 0.340000
						CHANNELS 3 Zrotation Yrotation Xrotation
						JOINT Head
						{
							OFFSET 0.000000 1.667000 -0.240000
							CHANNELS 3 Zrotation Yrotation Xrotation
							End Site
							{
								OFFSET 0.000000 0.000000 0.000000
							}
						}
					}
				}
				JOINT LeftShoulder
				{
					OFFSET 0.000000 0.000000 0.000000
					CHANNELS 3 Zrotation Yrotation Xrotation
					JOINT LeftArm
					{
						OFFSET 2.700000 1.550000 -0.730000
						CHANNELS 3 Zrotation Yrotation Xrotation
						JOINT LeftForeArm
						{
							OFFSET 5.450000 0.000000 0.000000
							CHANNELS 3 Zrotation Yrotation Xrotation
							JOINT LeftHand
							{
								OFFSET 3.450000 0.000000 0.000000
								CHANNELS 3 Zrotation Yrotation Xrotation
								JOINT LeftHandIndex1
								{
									OFFSET 0.750000 0.000000 0.000000
									CHANNELS 3 Zrotation Yrotation Xrotation
									End Site
									{
										OFFSET 0.000000 0.000000 0.000000
									}
								}
							}
						}
					}
				}
				JOINT RightShoulder
				{
					OFFSET 0.000000 0.000000 0.000000
					CHANNELS 3 Zrotation Yrotation Xrotation
					JOINT RightArm
					{
						OFFSET -2.700000 1.550000 -0.730000
						CHANNELS 3 Zrotation Yrotation Xrotation
						JOINT RightForeArm
						{
							OFFSET -5.450000 0.000000 0.000000
							CHANNELS 3 Zrotation Yrotation Xrotation
							JOINT RightHand
							{
								OFFSET -3.450000 0.000000 0.000000
								CHANNELS 3 Zrotation Yrotation Xrotation
								JOINT RightHandIndex1
								{
									OFFSET -0.750000 0.000000 0.000000
									CHANNELS 3 Zrotation Yrotation Xrotation
									End Site
									{
										OFFSET 0.000000 0.000000 0.000000
									}
								}
							}
						}
					}
				}
			}
		}
	}
}
MOTION
Frames: 10
Frame Time: 0.016667
-1.395560 16.964220 -7.116400 -5.788801 -14.727844 16.495416 -15.571850 13.636575 3.892014 15.325118 -4.635828 -32.470228 -2.784969 8.139440 30.686597 -0.236172 5.533147 2.348054 0.450470 0.365920 0.498490 17.952141 -9.427172 2.902407 -12.344506 3.211918 -36.197379 -2.510274 -2.786819 19.039446 -0.123299 -1.768116 3.548472 0.196700 -0.264940 0.116500 -2.410695 -4.794045 -7.908979 -2.579868 -0.572865 24.790367 5.611422 -0.266321 1.092294 0.987894 -6.819125 -13.395649 -12.098610 7.857239 15.981299 -6.969040 8.958310 -33.547570 -4.647880 -12.015890 4.712553 -20.157317 -14.564773 3.405702 -133.674358 -48.410527 82.142903 -3.364320 3.646351 0.564510 -0.217060 0.334870 0.005010 5.208343 17.070228 10.742981 37.898944 -6.744960 -11.139133 43.085303 37.732647 9.222121 2.219836 -1.487592 -0.059600 0.148950 -0.142460 -0.264950 
-1.413150 16.925010 -7.101460 -5.949557 -14.739131 15.908398 -15.575098 13.721768 3.870030 15.197027 -4.624987 -32.655547 -1.218845 7.953054 32.584446 -0.224240 5.714355 2.284881 0.450300 0.364170 0.498380 17.943783 -9.450825 2.869751 -12.324345 3.314746 -35.798328 -2.668224 -2.819337 19.962269 -0.126574 -1.849343 3.520764 0.202880 -0.258980 0.111310 -2.390207 -4.880904 -7.898425 -2.359024 -0.080622 25.527225 6.400608 0.355792 0.614863 0.630742 -7.502920 -13.322953 -13.428551 8.660475 15.675315 -7.369150 9.086660 -33.931670 -6.239510 -13.427671 4.310645 -18.015494 -16.433716 3.425389 -135.188048 -50.217502 87.216034 -3.374070 3.603044 0.566190 -0.216490 0.327900 0.002300 7.718273 18.861630 11.077085 35.999407 -4.990847 -9.584655 27.785969 31.623863 4.478059 2.238813 -1.298733 -0.068320 0.161750 -0.134880 -0.267090 
-1.426830 16.882930 -7.079670 -6.221072 -15.136077 14.823493 -15.581051 13.873517 3.806426 15.149890 -4.536009 -32.209638 0.410354 7.755449 34.721942 -0.208918 5.976788 2.196360 0.457800 0.370520 0.499020 17.923704 -9.499868 2.816103 -12.033127 3.417908 -35.184994 -3.163497 -2.811751 21.434429 -0.134365 -1.990381 3.475049 0.222120 -0.240930 0.107320 -2.337489 -5.023425 -7.865414 -2.096559 0.515185 25.987283 7.663805 0.992432 0.749666 0.042387 -8.264702 -13.234154 -15.033076 9.750140 15.747300 -7.748620 9.427910 -33.500440 -8.676823 -14.952531 3.605191 -16.978514 -18.727454 3.099529 -133.163952 -53.552139 89.292713 -3.408791 3.522795 0.562290 -0.202980 0.314750 0.007930 11.457731 20.672640 11.756947 33.496785 -2.775781 -6.527928 12.725163 22.612923 1.292284 2.285467 -1.134498 -0.082680 0.181300 -0.129090 -0.268780 
-1.441430 16.844360 -7.052970 -6.630133 -15.776435 13.273256 -15.598500 14.083954 3.734703 15.611809 -4.340670 -31.170473 1.502015 7.772608 36.775875 -0.169925 6.322947 2.068789 0.457300 0.369120 0.497680 17.884909 -9.529723 2.754460 -11.637989 3.532833 -34.436594 -3.632935 -2.864731 23.499737 -0.149418 -2.209006 3.398560 0.231560 -0.229990 0.108200 -2.231584 -5.294429 -7.853050 -1.725059 0.930533 26.532768 9.193875 1.386283 1.420917 -0.467454 -9.146225 -13.465313 -17.145858 10.943295 16.590444 -8.505580 10.075860 -32.231220 -11.412401 -16.668874 2.923197 -17.484718 -21.098256 2.495141 -124.657856 -57.879323 84.002522 -3.479311 3.407922 0.550120 -0.186600 0.301950 0.004220 15.326523 22.661068 12.780704 30.540085 -0.554369 -3.341382 0.738869 12.648149 0.196347 2.392632 -1.093348 -0.087400 0.185000 -0.117530 -0.271040 
-1.452150 16.802020 -7.023440 -7.234282 -17.008839 11.674767 -15.629335 14.309130 3.615060 16.257368 -4.041947 -29.618039 2.386265 7.850082 38.617991 -0.146540 6.679804 1.930746 0.483040 0.405130 0.521550 17.840881 -9.521414 2.725939 -10.852540 3.773752 -34.076107 -4.628699 -2.806563 26.226125 -0.188637 -2.515467 3.281364 0.272100 -0.222420 0.114410 -2.088016 -5.630963 -7.826256 -1.493235 1.049176 26.247049 11.027916 1.267268 2.943073 -1.215523 -9.772766 -13.353174 -18.978667 12.803712 17.803004 -9.543860 11.654210 -30.748570 -13.633060 -17.352460 2.552647 -19.622942 -23.187247 2.298096 -110.958602 -62.940703 74.436692 -3.623026 3.233726 0.533530 -0.156310 0.297190 0.003560 18.902879 23.456162 12.870229 27.401577 1.947754 -2.019681 -8.445758 6.549634 0.101127 2.477745 -1.181347 -0.092810 0.190740 -0.118760 -0.281730 
-1.469450 16.750070 -6.986630 -7.637108 -18.304456 10.007480 -15.630731 14.503291 3.474145 16.738901 -3.797882 -27.676236 3.047449 7.915584 40.122722 -0.095025 6.979838 1.827828 0.479810 0.408800 0.519430 17.816366 -9.568393 2.722110 -10.095917 3.932653 -33.858942 -6.137900 -2.616327 29.070371 -0.230486 -2.888442 3.153553 0.284750 -0.198290 0.118510 -2.002590 -5.816681 -7.826227 -1.028052 0.849211 25.684985 11.645237 0.965380 4.141333 -1.534847 -9.999875 -13.453021 -20.320733 14.660708 19.864797 -9.857200 13.543650 -27.956340 -15.618827 -18.117632 2.688508 -21.685645 -24.842541 2.403291 -89.930197 -66.757011 58.879324 -3.717035 3.224238 0.504560 -0.116850 0.279760 0.006620 21.369353 24.148003 12.760296 25.283560 3.789718 -1.825762 -11.863249 3.858947 0.096695 2.527793 -1.244168 -0.097940 0.184590 -0.116160 -0.283680 
-1.496730 16.688090 -6.948540 -7.620273 -19.361150 7.834317 -15.602021 14.719476 3.314118 16.939383 -3.613372 -25.144584 3.528743 7.925373 41.313863 -0.032888 7.198715 1.749861 0.491600 0.429220 0.532900 17.804185 -9.689945 2.693437 -9.655135 3.866631 -33.307412 -7.918079 -2.339949 31.938273 -0.301773 -3.313802 2.999373 0.294190 -0.205680 0.126260 -1.965782 -5.936071 -7.830418 -0.527038 0.174420 25.597602 10.925125 0.386594 4.805301 -1.530829 -9.873862 -13.260849 -21.211873 16.288548 22.749196 -10.047220 15.338020 -25.937980 -17.852832 -18.904483 2.651907 -22.952101 -25.677352 1.331192 -65.512202 -66.448766 40.960887 -3.569322 3.422383 0.490620 -0.101200 0.286860 0.007780 23.233383 24.566972 12.384095 24.215068 5.858776 -1.945287 -12.382260 4.643490 -0.168008 2.522383 -1.268135 -0.086770 0.162790 -0.127900 -0.288110 
-1.536240 16.617010 -6.910300 -7.420805 -20.578253 5.641574 -15.552449 14.846515 3.170439 17.315581 -3.472109 -22.460667 3.449485 8.230124 42.496446 0.065976 7.459368 1.655836 0.497390 0.451270 0.533650 17.821940 -9.819317 2.682951 -9.257817 3.799046 -33.012086 -9.947791 -1.936955 35.046155 -0.390396 -3.824914 2.815401 0.293660 -0.216450 0.137280 -2.005913 -5.897851 -7.848561 -0.070221 -0.744902 25.244357 9.320347 -0.370343 5.157586 -1.399061 -9.308578 -12.950949 -21.265408 17.899165 26.330426 -9.629250 17.197420 -23.505450 -20.025424 -19.710796 2.771552 -23.668161 -25.737968 -0.154182 -43.041839 -62.963478 24.360370 -3.473433 3.447504 0.464750 -0.087150 0.294850 0.008500 24.722933 24.576236 11.716892 25.232428 7.617621 -2.662391 -12.823611 8.974215 -0.809145 2.463870 -1.305688 -0.060540 0.123170 -0.141760 -0.282860 
-1.589130 16.543730 -6.878090 -7.043493 -21.871022 3.481484 -15.503921 14.875086 3.071627 17.897045 -3.430287 -19.840346 2.597407 8.959502 43.633656 0.176977 7.820584 1.545957 0.489330 0.441980 0.539270 17.856605 -9.906242 2.699223 -8.479187 3.844599 -33.062282 -12.891679 -1.072821 38.319715 -0.503131 -4.421895 2.612902 0.282160 -0.209470 0.145840 -2.080386 -5.782493 -7.895593 0.066235 -1.751249 24.751942 7.276398 -1.267384 5.216238 -1.198454 -8.336466 -12.536348 -20.256439 19.431380 30.240085 -8.996520 19.198350 -20.752740 -22.569464 -20.520550 2.998618 -23.246001 -25.454054 -1.325025 -25.277469 -56.766547 12.312408 -3.456117 3.370344 0.447890 -0.064130 0.294100 0.012450 26.503611 24.190569 10.882961 27.805723 8.774062 -4.250256 -13.731785 16.239002 -1.864743 2.360679 -1.343812 -0.055590 0.095950 -0.154070 -0.285390 
-1.654780 16.466600 -6.843700 -6.633606 -22.907833 1.474888 -15.466806 14.869389 2.983046 18.604136 -3.353524 -17.356885 1.688057 9.750253 44.464175 0.285237 8.150901 1.448526 0.468980 0.423740 0.536390 17.893498 -9.935620 2.741503 -7.573780 4.042054 -33.196137 -15.684621 -0.101354 41.902766 -0.642986 -5.117599 2.382689 0.263640 -0.203100 0.145410 -2.160075 -5.696922 -7.941823 0.208504 -2.733707 24.310312 5.311612 -2.144403 4.913605 -0.966025 -7.523961 -11.977550 -19.358984 20.886630 33.434097 -8.597870 21.025860 -18.625730 -25.377354 -20.398086 3.259783 -23.169073 -24.655597 -2.175166 -13.982516 -50.952513 5.868160 -3.471386 3.286556 0.435390 -0.048380 0.292640 0.009710 28.590229 23.025631 9.993604 31.489804 8.667111 -6.923205 -14.482959 26.523838 -3.365552 2.234845 -1.363114 -0.055220 0.078410 -0.157260 -0.286580 
